<?xml version="1.0" standalone="no"?><!DOCTYPE svg PUBLIC "-//W3C//DTD SVG 1.1//EN" "http://www.w3.org/Graphics/SVG/1.1/DTD/svg11.dtd"><svg t="1556348865120" class="icon" style="" viewBox="0 0 1024 1024" version="1.1" xmlns="http://www.w3.org/2000/svg" p-id="1947" xmlns:xlink="http://www.w3.org/1999/xlink" width="200" height="200"><defs><style type="text/css"></style></defs><path d="M913.664 192.796h-211v-2.132C702.664 83.744 615.648 0 512 0c-105.132 0-190.664 85.516-190.664 190.632v2.164h-211C49.492 192.796 0 242.296 0 303.132v610.532C0 974.508 49.492 1024 110.336 1024h803.336C974.508 1024 1024 974.508 1024 913.664V303.132c0-60.836-49.492-110.336-110.336-110.336z m-532.328-2.164C381.336 118.602 439.954 60 512 60c70.742 0 130.664 57.11 130.664 130.664v2.132H381.336zM964 913.664C964 941.422 941.42 964 913.664 964H110.336C82.578 964 60 941.42 60 913.664V303.132c0-27.756 22.58-50.336 50.336-50.336h803.336c27.75 0 50.328 22.58 50.328 50.336z m0 0" p-id="1948" fill="#D1A948"></path><path d="M641.336 514.132h-35.07v-34.264c0-51.978-42.29-94.266-94.266-94.266s-94.266 42.288-94.266 94.266v34.264h-34.266c-51.976 0-94.264 42.29-94.264 94.266s42.288 94.266 94.264 94.266h34.266v34.274c0 51.976 42.29 94.266 94.266 94.266s94.266-42.29 94.266-94.266v-34.274h33.46c24.97 0 49.446-10.14 67.164-27.844 17.736-17.734 27.906-42.234 27.906-67.258 0-24.54-9.992-48.616-27.42-66.07-17.64-17.64-41.094-27.36-66.04-27.36z m23.148 118.25c-6.546 6.54-15.562 10.282-24.758 10.282h-63.46c-16.562 0-30 13.438-30 30v64.274c0 18.89-15.368 34.266-34.266 34.266-18.89 0-34.266-15.376-34.266-34.266v-64.274c0-16.562-13.43-30-30-30h-64.266c-18.89 0-34.264-15.368-34.264-34.266 0-18.89 15.374-34.266 34.264-34.266h64.266c16.57 0 30-13.428 30-30v-64.264c0-18.9 15.376-34.266 34.266-34.266 18.9 0 34.266 15.366 34.266 34.266v64.264c0 16.572 13.438 30 30 30h65.078a33.16 33.16 0 0 1 23.594 9.774c6.266 6.28 9.866 14.9 9.866 23.688-0.008 9.196-3.772 18.234-10.32 24.788z m0 0" p-id="1949" fill="#D1A948"></path></svg>