<?xml version="1.0" standalone="no"?><!DOCTYPE svg PUBLIC "-//W3C//DTD SVG 1.1//EN" "http://www.w3.org/Graphics/SVG/1.1/DTD/svg11.dtd"><svg t="1556348787786" class="icon" style="" viewBox="0 0 1024 1024" version="1.1" xmlns="http://www.w3.org/2000/svg" p-id="1074" xmlns:xlink="http://www.w3.org/1999/xlink" width="200" height="200"><defs><style type="text/css"></style></defs><path d="M819.742 185.28c55.062 29.72 59.29 82.594 64.554 107.892a29.99 29.99 0 0 0 29.376 23.89 29.988 29.988 0 0 0 29.368-23.89c5.086-24.43 9.35-77.968 64.38-107.798 9.83-4.928 16.572-15.092 16.572-26.842a29.982 29.982 0 0 0-16.4-26.742c-55.42-29.922-59.482-83.564-64.552-107.892a30 30 0 0 0-58.742-0.008c-5.088 24.44-9.352 77.978-64.376 107.806-9.828 4.92-16.58 15.094-16.58 26.836 0 11.672 6.666 21.78 16.4 26.75z m93.922-61.898a175.326 175.326 0 0 0 29.07 35.15 175.024 175.024 0 0 0-29.062 35.148A175.59 175.59 0 0 0 884.6 158.532a175.07 175.07 0 0 0 29.062-35.15z m0 0M204.258 806.594c-55.422-29.922-59.484-83.562-64.554-107.9a29.99 29.99 0 0 0-29.376-23.89 29.996 29.996 0 0 0-29.368 23.892c-5.084 24.43-9.35 77.968-64.38 107.796-9.83 4.93-16.572 15.094-16.572 26.844a29.982 29.982 0 0 0 16.4 26.742C71.826 890 75.896 943.64 80.96 967.968a30 30 0 0 0 58.742 0.008c5.088-24.444 9.352-77.976 64.376-107.804 9.828-4.922 16.58-15.094 16.58-26.836a29.982 29.982 0 0 0-16.4-26.742z m-93.922 61.89a175.108 175.108 0 0 0-29.07-35.148 175.024 175.024 0 0 0 29.062-35.148A175.59 175.59 0 0 0 139.4 833.336a175.07 175.07 0 0 0-29.062 35.148z m0 0M1005.14 837.61c-51.734-20.688-60.702-69.892-62.578-76.61a30.012 30.012 0 0 0-28.89-21.938h-0.008a30.002 30.002 0 0 0-28.89 21.93c-1.876 6.712-10.852 55.93-62.58 76.618-11.39 4.56-18.866 15.594-18.866 27.86s7.476 23.296 18.868 27.85c51.726 20.688 60.694 69.884 62.578 76.626a29.99 29.99 0 0 0 28.898 21.92c13.46 0 25.274-8.968 28.89-21.928 1.868-6.696 10.844-55.922 62.58-76.618 11.39-4.554 18.858-15.586 18.858-27.852s-7.468-23.296-18.86-27.86z m-91.468 53.272a162.924 162.924 0 0 0-23.632-25.414 163.276 163.276 0 0 0 23.624-25.42 163.328 163.328 0 0 0 23.632 25.42 162.5 162.5 0 0 0-23.624 25.414z m0 0M18.86 186.39C70.594 207.08 79.56 256.282 81.438 263a30.012 30.012 0 0 0 28.89 21.938h0.008a30.002 30.002 0 0 0 28.89-21.93c1.876-6.712 10.852-55.93 62.58-76.618 11.39-4.56 18.866-15.594 18.866-27.86s-7.476-23.296-18.868-27.85c-29.094-11.64-51.46-36.61-59.836-66.75-1.866-6.76-6-31.804-31.64-31.798-24.852 0-29.25 23.212-31.618 31.76C70.33 94.07 47.954 119.04 18.86 130.68A29.996 29.996 0 0 0 0 158.532a30.006 30.006 0 0 0 18.86 27.86zM110.328 133.12A162.924 162.924 0 0 0 133.96 158.532a163.276 163.276 0 0 0-23.624 25.42 163.328 163.328 0 0 0-23.632-25.42 162.5 162.5 0 0 0 23.624-25.414z m0 0M895.468 553.656c0-27.726-10.796-53.788-30.398-73.39-17.852-17.852-41.062-28.368-66.008-30.11v-34.586c0-85.164-37.296-161.758-96.398-214.366v-10.54C702.664 85.532 617.132 0 512 0s-190.664 85.532-190.664 190.664v10.54c-59.1 52.608-96.4 129.202-96.4 214.366v34.586c-24.944 1.742-48.154 12.258-66.006 30.11-19.6 19.6-30.4 45.664-30.4 73.39 0 60.688 46.954 116.876 95.12 116.876h17.068c3.266 9.436 28.634 89.21 112.75 145.156V994c0 16.57 13.43 30 30 30 16.564 0 30-13.43 30-30v-147.96c31.156 11.36 64.384 17.288 98.532 17.288s67.376-5.938 98.532-17.288V994c0 16.57 13.436 30 30 30 16.57 0 30-13.43 30-30v-178.312c84.116-55.946 109.484-135.72 112.75-145.156h17.07c48.164 0 95.116-56.188 95.116-116.876z m-671.82 56.876c-5.906 0-8.156-3.086-14.758-9.384-12.936-12.312-20.36-29.624-20.36-47.5a43.494 43.494 0 0 1 12.83-30.96 43.38 43.38 0 0 1 23.578-12.156v65.74c0 11.54 0.688 22.97 2.022 34.268h-3.312zM512 60c60.758 0 111.96 41.688 126.524 97.954-38.188-18.82-81.126-29.422-126.492-29.422h-0.064c-45.366 0-88.304 10.6-126.484 29.42C400.04 101.69 451.244 60 512 60z m0 128.532c109.446 0 201.032 77.812 222.376 181-18.658-10.47-39.75-16.064-61.704-16.064H351.336c-21.96 0-43.054 5.594-61.704 16.064 21.336-103.188 112.922-181 222.368-181z m227.062 387.734c0 125.61-101.656 227.07-227.062 227.07s-227.062-101.46-227.062-227.07v-96.4c0-36.702 29.68-66.398 66.398-66.398h321.336c36.71 0 66.4 29.704 66.4 66.4v96.398z m76.048 24.882c-6.602 6.298-8.852 9.384-14.76 9.384h-3.304a293.218 293.218 0 0 0 2.024-34.266v-65.742a43.42 43.42 0 0 1 23.58 12.164 43.5 43.5 0 0 1 12.82 30.952c0 17.884-7.424 35.196-20.36 47.508z m0 0" p-id="1075" fill="#D1A948"></path></svg>