<?xml version="1.0" standalone="no"?><!DOCTYPE svg PUBLIC "-//W3C//DTD SVG 1.1//EN" "http://www.w3.org/Graphics/SVG/1.1/DTD/svg11.dtd"><svg t="1556348923348" class="icon" style="" viewBox="0 0 1024 1024" version="1.1" xmlns="http://www.w3.org/2000/svg" p-id="2093" xmlns:xlink="http://www.w3.org/1999/xlink" width="200" height="200"><defs><style type="text/css"></style></defs><path d="M543.992 128.532h-2.132v-2.134c0-16.57-13.43-30-30-30s-30 13.43-30 30v2.134h-2.134c-16.562 0-30 13.428-30 30s13.438 30 30 30h2.134v2.132c0 16.57 13.43 30 30 30s30-13.43 30-30v-2.132h2.132c16.57 0 30-13.43 30-30s-13.43-30-30-30z m0 0" p-id="2094" fill="#D1A948"></path><path d="M990.57 985.75l-39.524-138.296c-18.172-63.626-63.272-115.524-123.726-142.392l-189.062-84.03v-54.204c58.196-40.234 96.406-107.42 96.406-183.368V30c0-16.57-13.438-30-30-30H319.054c-16.56 0-30 13.43-30 30v353.46c0 75.946 38.212 143.134 96.406 183.368v54.204L196.406 705.06c-60.46 26.868-105.562 78.766-123.734 142.384L33.148 985.75C27.868 1004.218 41.39 1024 62.008 1024c13.054 0 25.062-8.586 28.828-21.766l39.532-138.304c13.272-46.484 46.226-84.406 90.406-104.04l76.828-34.156c0.086 0.086 0.156 0.188 0.24 0.274l192.806 192.796a29.896 29.896 0 0 0 21.212 8.79c7.68 0 15.35-2.93 21.21-8.79l192.798-192.796c0.086-0.086 0.164-0.18 0.24-0.274l76.838 34.156c44.18 19.634 77.132 57.548 90.406 104.04l39.524 138.304c3.772 13.172 15.78 21.766 28.834 21.766 21.556 0 33.9-20.632 28.86-38.25zM349.054 60h325.61v197.062H349.054z m0 323.46v-66.398h325.61v66.4c0 89.764-73.04 162.796-162.804 162.796-89.766 0-162.806-73.032-162.806-162.798z m162.806 471.704l-155.532-155.524 71.32-31.702a30 30 0 0 0 17.812-27.414v-44.368a222.04 222.04 0 0 0 66.4 10.1c23.116 0 45.42-3.538 66.398-10.1v44.368c0 11.86 6.984 22.6 17.82 27.414l71.312 31.702z m0 0" p-id="2095" fill="#D1A948"></path><path d="M801.054 899.726h-96.39c-16.57 0-30 13.43-30 30s13.43 30 30 30h96.39c16.572 0 30-13.43 30-30s-13.428-30-30-30z m0 0" p-id="2096" fill="#D1A948"></path></svg>