<?xml version="1.0" standalone="no"?><!DOCTYPE svg PUBLIC "-//W3C//DTD SVG 1.1//EN" "http://www.w3.org/Graphics/SVG/1.1/DTD/svg11.dtd"><svg t="1556348825684" class="icon" style="" viewBox="0 0 1024 1024" version="1.1" xmlns="http://www.w3.org/2000/svg" p-id="1364" xmlns:xlink="http://www.w3.org/1999/xlink" width="200" height="200"><defs><style type="text/css"></style></defs><path d="M994.00136 0c-16.57 0-30 13.43-30 30v153.82c0 129.376-54.58 241.812-132.39 319.61l-176.26 176.266c-38.296 38.288-89.194 59.374-143.358 59.374-54.148 0-105.046-21.086-143.336-59.366l-176.266-176.274C114.58736 425.64 60.00136 313.21 60.00136 183.82V30c0-16.57-13.43-30-30-30S0.00136 13.43 0.00136 30v153.82c0 146.532 61.812 273.89 149.96 362.04l176.266 176.266c49.626 49.616 115.594 76.944 185.78 76.944 70.174 0 136.142-27.328 185.768-76.944l176.266-176.266C977.65736 442.24 1024.00136 308.484 1024.00136 183.82V30c0-16.57-13.43-30-30-30z m0 0" p-id="1365" fill="#D1A948"></path><path d="M204.30536 85.758c27.97 22.288 63.056 34.562 98.828 34.562 35.774 0 70.86-12.274 98.836-34.57a29.942 29.942 0 0 0 11.5-23.618c0-16.57-13.428-30-30-30a30.012 30.012 0 0 0-18.85 6.664c-36.22 28.908-86.75 28.908-122.978-0.006a30.024 30.024 0 0 0-18.836-6.658c-16.57 0-30 13.43-30 30a29.912 29.912 0 0 0 11.5 23.626z m0 0M622.03336 85.75c27.976 22.296 63.06 34.57 98.836 34.57 35.772 0 70.86-12.274 98.836-34.562a29.958 29.958 0 0 0 11.5-23.626c0-16.57-13.43-30-30-30a30.03 30.03 0 0 0-18.844 6.658c-36.22 28.914-86.75 28.914-122.978 0.006a29.992 29.992 0 0 0-18.842-6.664c-16.572 0-30 13.43-30 30-0.008 9.594 4.492 18.126 11.492 23.618z m0 0M387.93136 964.328c-109-18.304-203.984-81.688-262.72-174.742l23.844 7.946c15.72 5.234 32.712-3.26 37.946-18.978 5.242-15.718-3.258-32.71-18.968-37.944l-96.408-32.134c-15.718-5.24-32.702 3.26-37.944 18.97L1.54736 823.852c-5.24 15.72 3.26 32.702 18.978 37.944 16.186 5.4 32.866-3.74 37.944-18.968l10.22-30.664a447.9 447.9 0 0 0 67.828 87.11C247.48536 1010.24 380.11136 1024 383.46936 1024h0.008c16.564 0 29.992-13.43 29.992-30 0-15.054-11.086-27.516-25.54-29.672z m0 0M351.33736 449.868c-16.57 0-30 13.428-30 30s13.43 30 30 30h22.124c14.188 0 27.524-5.408 37.666-15.25 0.218-0.204 0.428-0.414 0.64-0.618a58.136 58.136 0 0 1 62.75-12.882l26.336 10.54a30.02 30.02 0 0 0 24.554-1.018l9.548-4.78c23.492-11.742 51.14-9.266 72.18 6.46 0.046 0.04 0.092 0.07 0.148 0.11 15.022 11.24 33.616 17.438 52.366 17.438h13.016c16.57 0 30-13.43 30-30 0-16.564-13.43-30-30-30h-13.016c-5.836 0-11.64-1.922-16.344-5.414l-0.094-0.072c-38.584-28.936-89.116-33.984-132.54-13.42l-13.88-5.556a118.082 118.082 0 0 0-125.712 24.46z m0 0M543.55536 519.172a56.74 56.74 0 0 1-63.116 0c-13.79-9.188-32.414-5.46-41.602 8.328-9.188 13.78-5.46 32.406 8.328 41.6 19.696 13.126 42.266 19.69 64.836 19.69s45.14-6.564 64.836-19.688c13.788-9.196 17.516-27.82 8.32-41.602-9.188-13.796-27.812-17.516-41.6-8.328z m0 0M990.32136 727.446c-5.24-15.72-22.226-24.212-37.946-18.97l-96.406 32.126c-15.71 5.24-24.21 22.234-18.968 37.952 5.234 15.72 22.226 24.212 37.946 18.97l23.844-7.946c-58.736 93.062-153.728 156.446-262.72 174.75-14.452 2.156-25.54 14.618-25.54 29.672 0 16.57 13.43 30 30 30 3.36 0 135.986-13.766 246.962-124.734a447.93 447.93 0 0 0 67.82-87.11l10.22 30.664c5.078 15.234 21.758 24.368 37.952 18.97 15.72-5.236 24.212-22.228 18.97-37.946z m0 0" p-id="1366" fill="#D1A948"></path></svg>