<?xml version="1.0" standalone="no"?><!DOCTYPE svg PUBLIC "-//W3C//DTD SVG 1.1//EN" "http://www.w3.org/Graphics/SVG/1.1/DTD/svg11.dtd"><svg t="1556348837867" class="icon" style="" viewBox="0 0 1026 1024" version="1.1" xmlns="http://www.w3.org/2000/svg" p-id="1655" xmlns:xlink="http://www.w3.org/1999/xlink" width="200.390625" height="200"><defs><style type="text/css"></style></defs><path d="M1008.080897 451.200818a1785619.627547 1785619.627547 0 0 1-124.752358-199.606172 654.103722 654.103722 0 0 0 29.282977-193.729995V30.969307c0-16.553594-13.424695-29.970297-29.970296-29.970297-16.553594 0-29.970297 13.416703-29.970297 29.970297v26.893346c0 64.148423-10.287804 127.507628-30.563708 188.331346-1.342669 4.004032-3.754279 14.531598 3.013013 25.364861 0 0 86.030735 137.667559 132.135042 211.416466 9.26282 14.827305 7.100962 33.816485-5.268778 46.188223l-58.442078 58.442079a29.998269 29.998269 0 0 0-8.367707 16.263881l-31.35892 187.899773-30.08818 60.168368c-3.894141 7.780289-3.160867 12.096012-3.160868 32.218069 0 43.90049-35.720598 79.623086-79.623086 79.623086-61.539009 0-285.97657 9.326756-479.151116-183.833804-11.698406-11.698406-30.679594-11.698406-42.377999 0.007992-11.708396 11.700404-11.708396 30.681592 0 42.379998a687.950177 687.950177 0 0 0 86.498272 73.311341l-29.540723 88.622168c-6.313742 18.965204 7.548519 39.452898 28.441812 39.452898 12.547564 0 24.239976-7.936135 28.423829-20.495687l24.63958-73.910747c178.527063 104.522408 341.325714 94.398442 383.066345 94.398442 76.953732 0 139.563679-62.601956 139.56368-139.563679v-11.730374c31.133144-62.282272 30.6736-60.238298 31.696585-66.356235l30.515756-182.866762 51.652808-51.650809c32.218069-32.218069 37.860477-81.699029 13.706415-120.340731z m0 0M252.545704 576.694442c0-16.545602-13.414705-29.970297-29.970297-29.970297h-28.212039C133.669521 546.724145 59.940593 497.247181 59.940593 418.561167c0-73.287365 59.628902-132.908275 132.91427-132.908276 44.705692 0 163.977483 6.581477 270.108297-99.571315l133.921272-133.92327a29.850415 29.850415 0 0 0 8.781296-21.188999c0-16.553594-13.424695-29.970297-29.970296-29.970297a29.90636 29.90636 0 0 0-21.204984 8.787291l-133.92327 133.915277c-88.957834 88.981811-190.091601 82.012718-227.718309 82.012718C86.514256 225.714296 0 312.222558 0 418.569159c0 93.77506 81.575151 188.093582 194.36137 188.093581h28.214037c16.555592 0 29.970297-13.414705 29.970297-29.970296z m0 0" p-id="1656" fill="#D1A948"></path><path d="M190.475221 381.957444c16.553594 0 29.970297-13.424695 29.970297-29.970296 0-16.553594-13.416703-29.970297-29.970297-29.970297-51.924538 0-94.172666 42.24613-94.172666 94.172666s42.248128 94.172666 94.172666 94.172666c16.553594 0 29.970297-13.416703 29.970297-29.970296s-13.416703-29.970297-29.970297-29.970297c-18.871297 0-34.232073-15.360776-34.232073-34.232073 0-18.881287 15.360776-34.232073 34.232073-34.232073z m0 0M385.859577 804.756411c4.081954 15.250885 20.004174 25.662566 36.705621 21.19899 13.572548-3.636396 22.423776-16.040103 22.182016-29.486776l95.725127 55.273219c16.373772 9.450634 33.904398 1.224786 40.943421-10.973125 8.271802-14.329798 3.364665-32.663627-10.973124-40.935429l-95.725128-55.275217c11.760344-6.50755 18.068093-20.369812 14.429699-33.94236-4.283754-15.99215-20.729455-25.474752-36.703623-21.189l-62.010542 16.615533c-15.984158 4.285752-25.474752 20.713471-21.188999 36.705621z m0 0M522.941716 253.294961c-11.706398-11.706398-30.679594-11.706398-42.378 0l-45.395009 45.395009c-11.698406 11.706398-11.698406 30.679594 0 42.378l45.395009 45.401003c11.706398 11.708396 30.679594 11.708396 42.378 0.007992 9.944144-9.936152 11.410691-25.109115 4.473566-36.619706h110.546438c16.553594 0 29.970297-13.426693 29.970297-29.970297 0-16.555592-13.416703-29.970297-29.970297-29.970297h-110.546438c6.937125-11.528574 5.462586-26.685552-4.473566-36.621704z m0 0M454.229816 448.289703c0-16.553594-13.416703-29.970297-29.970297-29.970297h-64.202369c-16.553594 0-29.970297 13.416703-29.970297 29.970297V512.492072c0 16.553594 13.416703 29.970297 29.970297 29.970297 14.048077 0 25.810419-9.6864 29.057201-22.735467l78.15654 78.156539c11.708396 11.708396 30.681592 11.708396 42.387989 0 11.700404-11.698406 11.700404-30.671602 0-42.377999l-78.164531-78.16653c13.049067-3.236792 22.735467-15.001132 22.735467-29.049209z m0 0" p-id="1657" fill="#D1A948"></path></svg>