<?xml version="1.0" standalone="no"?><!DOCTYPE svg PUBLIC "-//W3C//DTD SVG 1.1//EN" "http://www.w3.org/Graphics/SVG/1.1/DTD/svg11.dtd"><svg t="1556348847125" class="icon" style="" viewBox="0 0 1024 1024" version="1.1" xmlns="http://www.w3.org/2000/svg" p-id="1801" xmlns:xlink="http://www.w3.org/1999/xlink" width="200" height="200"><defs><style type="text/css"></style></defs><path d="M512 772.008c127.344 0 198.032-92.118 220.89-153.07 7.344-19.586-7.156-40.54-28.094-40.54H319.204c-20.922 0-35.446 20.93-28.094 40.54 22.74 60.632 93.164 153.07 220.89 153.07z m143.024-133.61c-32.564 45.28-85.72 73.61-143.024 73.61s-110.46-28.328-143.024-73.61z m0 0M360.126 273.78a29.96 29.96 0 0 0 23.342 11.15c16.564 0 30-13.438 30-30 0-7.024-2.46-13.82-6.96-19.212-25.648-30.772-63.328-48.414-103.376-48.414-40.046 0-77.726 17.64-103.374 48.414a29.97 29.97 0 0 0-6.96 19.212v0.008c0 16.562 13.428 29.992 30 29.992a29.92 29.92 0 0 0 23.226-11.016 74.394 74.394 0 0 1 57.108-26.61c22.04 0 42.79 9.64 56.992 26.478z m0 0M777.86 273.78a29.96 29.96 0 0 0 23.344 11.15c16.56 0 30-13.438 30-30 0-7.024-2.46-13.82-6.96-19.212-25.65-30.764-63.33-48.414-103.376-48.414-40.048 0-77.728 17.64-103.376 48.414a29.97 29.97 0 0 0-6.96 19.212v0.008c0 16.562 13.428 29.992 30 29.992 9.36 0 17.726-4.29 23.226-11.008a74.376 74.376 0 0 1 57.11-26.618 74.38 74.38 0 0 1 56.992 26.478z m0 0M171.946 88.968c36.344-18.172 76.718-24.24 116.796-17.56l121.93 20.32c16.344 2.726 31.796-8.32 34.524-24.658 2.726-16.344-8.32-31.804-24.656-34.53L298.6 12.22C245.94 3.444 192.87 11.428 145.12 35.294c-14.82 7.414-20.828 25.43-13.414 40.25 7.428 14.868 25.468 20.806 40.24 13.422z m0 0M613.376 91.726l121.928-20.32c40.07-6.68 80.454-0.61 116.79 17.562 14.774 7.384 32.812 1.446 40.25-13.42 7.406-14.82 1.4-32.838-13.422-40.252C831.172 11.422 778.1 3.446 725.438 12.22l-121.93 20.32c-16.344 2.728-27.382 18.188-24.656 34.532 2.72 16.336 18.18 27.384 34.524 24.656z m0 0" p-id="1802" fill="#D1A948"></path><path d="M994 0c-16.57 0-30 13.43-30 30v378.75c0 110.016-40.89 228.118-132.39 319.61l-176.266 176.272C617.054 942.914 566.156 964 511.984 964c-54.14 0-105.04-21.086-143.328-59.376L192.39 728.36C100.922 636.89 60 518.804 60 408.75V30c0-16.57-13.43-30-30-30S0 13.43 0 30v378.75c0 124.766 46.406 258.476 149.96 362.04l176.266 176.264C375.844 996.672 441.812 1024 512.016 1024c70.172 0 136.14-27.328 185.75-76.946l176.274-176.264C977.656 667.164 1024 533.406 1024 408.75V30c0-16.57-13.43-30-30-30z m0 0" p-id="1803" fill="#D1A948"></path></svg>