<?xml version="1.0" standalone="no"?><!DOCTYPE svg PUBLIC "-//W3C//DTD SVG 1.1//EN" "http://www.w3.org/Graphics/SVG/1.1/DTD/svg11.dtd"><svg t="1556348830623" class="icon" style="" viewBox="0 0 1024 1024" version="1.1" xmlns="http://www.w3.org/2000/svg" p-id="1510" xmlns:xlink="http://www.w3.org/1999/xlink" width="200" height="200"><defs><style type="text/css"></style></defs><path d="M923.274285 476.002155c-14.98095 0-26.012158 1.742534-39.298978 7.993874-2.514573 1.548919-3.177704-0.176674-2.98651-1.060041 9.591197-44.691152 14.613082-85.444662 14.613082-119.295802 0-62.76026-22.219726-122.200025-62.564224-167.365533-42.4549-47.534871-100.892708-73.709181-164.543597-73.70918-49.850988 0-103.223347 29.448822-142.239163 50.973954-12.88991 7.110506-32.132808 18.75402-37.791203 18.756441-5.648714 0.00242-24.814166-11.624153-37.655671-18.732239-38.899647-21.522713-92.170358-50.995736-142.372274-50.995736-63.650888 0-122.088696 26.17431-164.541176 73.70918-40.344498 45.165509-62.561805 104.607694-62.561805 167.365534 0 14.625183 0.893049 22.350416 2.621061 39.156187 0 5.755202-2.836458 8.790115-4.242585 9.162823-18.073948 4.808909-34.644961 14.281517-48.224624 27.85876-41.949082 41.946661-41.949082 110.203163 0 152.154665 5.806026 5.801186 10.779508 9.482288 17.628634 13.770857 1.541658 1.224614 1.348044 2.243512 1.331102 2.671886a119.208675 119.208675 0 0 0 34.932963 88.501356c22.570653 22.570653 52.580958 34.998308 84.500789 34.998308 3.400361 0 4.55721 0 7.906747-0.280742 2.21931 0 2.6017 0.658291 2.795315 1.074563 19.676111 41.852274 40.051656 78.288172 59.541413 106.328446 29.182601 41.987805 54.478384 62.392392 77.332199 62.392391 10.426161 0 29.485124-4.353914 40.032294-33.517154a695.72599 695.72599 0 0 0 9.056335-26.914887c0.157312-0.498558 0.169413-1.580381 2.289496-1.408548 2.550876 0.150052 3.296293 0.150052 5.873791 0.150052 34.700625 0 63.868705-11.597531 88.661089-35.794549 1.996653-1.611844 4.847632-1.154429 5.532545-0.888209a112.63061 112.63061 0 0 0 40.818855 7.616325h0.00242c25.985536 0 48.887754-7.386407 68.837347-23.468542 1.377086-0.888208 2.124923 0.050824 2.228991 0.428373 7.986613 29.197122 15.506131 56.085387 24.09779 80.192858 10.336614 29.003507 29.199542 33.342901 39.526476 33.342901h0.014521c22.752167 0 48.033429-20.719211 77.276535-63.336264 15.544854-22.6602 31.142952-49.60655 47.062934-81.429573 0.292842-0.580845 1.56344-1.868383 3.572194-0.321885 21.065298 18.255462 45.763294 26.593002 74.386833 26.593002 62.665873 0 114.017376-49.362111 117.228963-111.241423 0.043563-0.854326-0.208136-2.720289 2.558136-3.702884 35.707422-15.88126 57.510877-50.700474 57.510877-90.991728-0.00242-55.545686-45.196971-100.737816-100.749917-100.737817zM215.570795 520.035017a118.194617 118.194617 0 0 0-3.228528 3.760969c-0.067765 0.077446-0.12827 0.166993-0.193615 0.251699-17.103453 21.036256-26.411488 47.089556-26.411488 74.570767 0 25.443414 24.589088 65.064277 24.589088 72.303053 0 14.356543-25.7774 12.597067-40.441305 12.597067-18.991198 0-36.84733-7.393668-50.274521-20.823279-35.206444-35.206444-12.940734-79.907277-15.336718-84.353158-2.395984-4.443461-21.571117-3.606077-38.558401-20.595782-23.076472-23.076472-23.076472-60.620815 0-83.697288 11.178838-11.178838 26.0412-17.333371 41.849854-17.333371 46.629721 0 58.396665 47.00969 66.634977 46.450628 8.238313-0.559063 16.902578-48.628795 55.303667-48.628795 11.890373 0 23.069212 4.629816 31.476938 13.037541 4.866994 4.869414 7.54856 8.260094 9.709785 14.634864 1.03584 2.277395-0.198455 2.795315-0.755098 2.962308a117.296728 117.296728 0 0 0-37.803303 19.426832c-0.275901 0.212976-0.546962 0.430793-0.820443 0.643769a116.628757 116.628757 0 0 0-4.545109 3.748868c-0.404171 0.350927-0.810762 0.689753-1.210093 1.04552a120.641425 120.641425 0 0 0-5.111433 4.794388c-0.198455 0.198455-0.379969 0.404171-0.573584 0.602627-1.219774 1.239135-2.420186 2.483111-3.579454 3.768229-0.246859 0.268641-0.479197 0.554223-0.721216 0.832544z m105.904913 334.854496c-1.626365 4.494285-3.204326 7.863184-4.390217 8.192329-2.417766 0.667971-16.948562-4.804069-45.509175-45.903665-16.897738-24.315607-35.41458-57.174471-53.169063-94.154911-0.179094-0.375129-0.796241-1.551339 0.479197-2.141865 8.552937-3.753708 15.131002-7.132288 22.602116-12.800363 0.227497-0.174253 1.16653 0 1.260916 1.258497-0.200875 34.916021 13.429611 66.53575 38.645528 91.751666 13.795059 13.795059 27.236772 23.05227 45.032399 29.55773 2.403245 0.832544 2.47101 2.417766 2.08862 3.550413-2.926005 8.654585-4.641916 14.054019-7.040321 20.690169z m233.72703-111.451979c-12.149333 12.151753-28.294393 18.838727-45.475293 18.838726-34.252891 0-48.677198-23.984042-54.292029-22.991765-5.614831 0.989856-3.557673 9.50407-21.634041 27.580438-15.782032 15.782032-36.767464 24.472919-59.088838 24.472919-22.323794 0-43.311646-8.695728-59.093678-24.47776-42.958299-42.958299-14.397686-88.457793-18.732239-95.662686-2.60412-4.324872-30.491922-8.262515-48.907116-26.675289-26.815659-26.815659-18.988778-64.32128 1.720752-89.936527 0.062925-0.075026 0.121009-0.154892 0.183934-0.237178 0.576004-0.704274 1.181051-1.394027 1.790938-2.078939 0.183934-0.212976 0.360608-0.430793 0.546962-0.638929 0.595366-0.65587 1.217353-1.29722 1.841761-1.938569 0.205716-0.208136 0.401751-0.430793 0.609887-0.64135 0.099228-0.099228 0.203296-0.186354 0.302523-0.285582 0.680072-0.675232 1.372245-1.340783 2.07652-1.979712 0.469516-0.425953 0.955973-0.837384 1.43759-1.253656 0.326725-0.283162 0.64861-0.571164 0.980176-0.849485 0.660711-0.551802 1.335943-1.081823 2.016014-1.604583l0.416272-0.329146a70.015977 70.015977 0 0 1 37.650832-14.051599l1.56102-0.104068c1.03584-0.045984 2.076519-0.075026 3.122039-0.075025 49.826787 0 66.719684 50.944912 74.970098 50.388269 8.250414-0.554223 20.43847-52.852019 62.924832-52.852019a53.154542 53.154542 0 0 1 37.829926 15.665863c41.593314 41.593314-6.401392 83.084981-1.776417 90.386682s48.30691-8.354482 77.019995 20.358603c12.151753 12.149333 18.841147 28.301653 18.841147 45.484973 0 17.180899-6.694234 33.34048-18.843567 45.487394z m134.922941 72.733845c-25.063445 36.530285-40.591357 48.137497-45.085642 46.649083-1.115706-0.367868-2.47101-3.351957-4.073173-7.846243-8.957108-25.148151-17.159118-55.175397-25.840324-86.9839-1.684449-6.173894-2.824357-10.365656-4.533008-16.561332-0.539701-2.08136-0.062925-2.964728 0.174253-3.448764 7.621165-15.36334 11.674977-32.379667 11.674977-50.025242 0-30.109532-11.728221-58.420867-33.021016-79.716082-11.449899-11.447479-24.303506-22.92158-39.916126-25.765299-4.283729-0.7793-5.566427-4.329713-5.566427-7.628426 1.507776-28.301653-8.877242-56.460516-29.758606-77.341879-19.247738-19.247738-44.838783-29.845732-72.056193-29.845732-25.140891 0-48.890175 9.036974-67.535287 25.581364-15.876419-11.764523-30.98806-18.758861-50.584304-21.464628-2.821937-0.014521-3.579455-1.740114-3.712566-2.352421a92.627774 92.627774 0 0 0-25.090066-46.082759c-17.551188-17.551188-40.8842-27.21257-65.703206-27.21257-21.198408 0-41.314993 7.050001-57.670609 20.0464-0.742997 0.590525-1.938569 2.071679-3.722246 0.290422-12.76648-9.056335-25.755618-13.618386-41.14558-16.4016-1.531978-0.278321-4.620135-1.512616-4.620135-8.502112-1.788517-16.413701-2.713028-23.96226-2.713028-37.921893 0-99.672935 70.621023-202.775273 188.80354-202.775272 30.671015 0 71.076018 14.041918 108.08308 37.556444 5.399435 3.431824 13.098046 9.349178 20.540117 15.070497 2.971988 2.287076 5.902833 4.537848 8.635224 6.595007 8.826418 6.611948 20.757934 15.264112 34.77807 23.512105 5.997221 3.540732 13.458654 7.94789 21.464629 11.345832 30.317668 12.870548 62.464997 19.39537 95.539257 19.395369 33.737391 0 74.936215-8.180228 74.936215-12.979456 0-6.181155-69.943371-4.702421-115.955945-16.890478-18.279664-4.840372-38.442232-15.467408-39.081162-19.695472-0.234758-1.56102 6.459476-5.486561 11.517665-8.509374 4.448302-2.657364 9.489549-5.668075 15.895781-9.203967 35.329873-19.494597 83.716649-46.191667 123.70538-46.191667 118.182516 0 188.80596 103.104758 188.80596 202.775273 0 26.796298-3.63996 59.280033-10.600414 95.135086-0.200875 1.03584-0.484037 3.927962-3.388261 1.965191-11.282906-4.903297-20.876523-6.447375-33.749492-6.447376-47.638939 0-86.877412 36.639194-91.02803 83.213251-49.577507 8.72235-87.366289 52.096921-87.36629 104.140598 0 56.136211 41.249648 101.974531 96.555736 105.321648 2.47343-0.043563 2.202369 1.222194 1.940989 1.732853-13.463494 26.092024-26.902786 49.054747-39.533737 67.467521z m240.902881-185.214403c-5.672916 0.576004-16.084555-3.00103-19.354226 1.667508-3.272091 4.670959 1.895006 17.030848 3.291453 22.556132 0.842225 3.313234 0.745417 6.788621 0.745417 10.113957 0 38.040481-30.944496 68.982558-68.984978 68.982557-23.216843 0-46.690226-10.433421-57.576222-31.005001-2.364522-4.462823-6.307004-15.397222-11.142535-16.846914-4.835531-1.452112-14.143566 5.515604-18.570087 7.950311-6.798302 3.734347-14.71231 4.598353-22.53677 4.598353-31.612468 0-57.329363-25.719315-57.329363-57.329363 0-31.614888 25.716895-57.334203 57.329363-57.334203 24.155875 0 32.515197 9.327396 37.958195 3.107519s-8.284296-15.10438-8.284296-41.733685c0-23.7033 19.286461-42.992182 42.989761-42.992182 53.950783 0 44.485436 56.748518 52.917364 58.641104 8.429507 1.892585 22.00675-36.934456 60.795069-36.934457 28.863137 0 52.34378 23.478223 52.34378 52.34136-0.00242 24.690736-20.087543 51.724212-44.591925 54.217004z" p-id="1511" fill="#D1A948"></path></svg>