<?xml version="1.0" standalone="no"?><!DOCTYPE svg PUBLIC "-//W3C//DTD SVG 1.1//EN" "http://www.w3.org/Graphics/SVG/1.1/DTD/svg11.dtd"><svg t="1556348818074" class="icon" style="" viewBox="0 0 1024 1024" version="1.1" xmlns="http://www.w3.org/2000/svg" p-id="1218" xmlns:xlink="http://www.w3.org/1999/xlink" width="200" height="200"><defs><style type="text/css"></style></defs><path d="M406.508 209.882a29.99 29.99 0 0 0 6.96-19.218c0-16.562-13.428-29.992-30-29.992a29.938 29.938 0 0 0-23.226 11.008 74.376 74.376 0 0 1-57.11 26.616 74.388 74.388 0 0 1-56.992-26.484 29.95 29.95 0 0 0-23.336-11.14c-16.57 0-30 13.43-30 30 0 7.024 2.46 13.82 6.954 19.21 25.648 30.766 63.328 48.414 103.374 48.414 40.048 0 77.728-17.648 103.376-48.414z m0 0M335.844 390.64c-13.798-9.194-32.414-5.46-41.61 8.32-52.046 78.08-69.296 155.946-69.296 241.572 0 16.57 13.43 30 30 30 16.562 0 30-13.43 30-30 0-32.188-1.306-117.486 59.226-208.29 9.188-13.788 5.46-32.414-8.32-41.6z m0 0M341.844 612.08c-15.726 5.24-24.204 22.216-18.96 37.944 5.234 15.72 22.218 24.194 37.936 18.976l91.78-30.6h118.838l91.78 30.6c15.72 5.22 32.704-3.258 37.94-18.976 5.24-15.728-3.236-32.704-18.954-37.946l-96.408-32.14a30.094 30.094 0 0 0-9.5-1.54h-128.554c-3.242 0-6.446 0.524-9.5 1.54z m0 0M171.946 88.968c36.344-18.172 76.718-24.24 116.796-17.56l121.93 20.32c16.344 2.726 31.796-8.32 34.524-24.658 2.726-16.344-8.32-31.804-24.656-34.53L298.6 12.22C245.94 3.444 192.87 11.428 145.12 35.294c-14.82 7.414-20.828 25.43-13.414 40.25 7.428 14.868 25.468 20.806 40.24 13.422z m0 0M824.28 209.882a29.964 29.964 0 0 0 6.962-19.202c0-16.57-13.438-30.008-30-30.008a29.936 29.936 0 0 0-23.344 11.148 74.368 74.368 0 0 1-56.992 26.476 74.418 74.418 0 0 1-57.11-26.608 29.92 29.92 0 0 0-23.226-11.016c-16.562 0-30 13.43-30 30 0 7.016 2.47 13.82 6.96 19.22 25.65 30.764 63.33 48.412 103.376 48.412 40.048-0.008 77.726-17.656 103.376-48.42z m0 0M769.11 670.532c16.56 0 30-13.43 30-30 0-85.626-17.26-163.492-69.306-241.572-9.186-13.78-27.812-17.514-41.6-8.32-13.79 9.188-17.516 27.814-8.33 41.602 60.532 90.804 59.236 176.1 59.236 208.29 0 16.57 13.43 30 30 30z m0 0M447.742 674.796c-16.586 0-30 13.446-30 30 0 16.564 13.414 30 30 30h128.554c16.586 0 30-13.436 30-30 0-16.554-13.414-30-30-30z m0 0M613.376 91.726l121.928-20.32c40.07-6.68 80.454-0.61 116.79 17.562 14.774 7.384 32.812 1.446 40.25-13.42 7.406-14.82 1.4-32.838-13.422-40.252C831.172 11.422 778.1 3.446 725.438 12.22l-121.93 20.32c-16.344 2.728-27.382 18.188-24.656 34.532 2.72 16.336 18.18 27.384 34.524 24.656z m0 0" p-id="1219" fill="#D1A948"></path><path d="M994 0c-16.57 0-30 13.43-30 30v378.75c0 110.016-40.89 228.118-132.39 319.61l-176.266 176.272C617.054 942.914 566.156 964 511.984 964c-54.14 0-105.04-21.086-143.328-59.376L192.39 728.36C100.922 636.89 60 518.804 60 408.75V30c0-16.57-13.43-30-30-30S0 13.43 0 30v378.75c0 124.766 46.406 258.476 149.96 362.04l176.266 176.264C375.844 996.672 441.812 1024 512.016 1024c70.172 0 136.14-27.328 185.75-76.946l176.274-176.264C977.656 667.164 1024 533.406 1024 408.75V30c0-16.57-13.43-30-30-30z m0 0" p-id="1220" fill="#D1A948"></path></svg>